<?xml version="1.0" encoding="utf-8"?>
<!-- Generator: Adobe Illustrator 23.1.0, SVG Export Plug-In . SVG Version: 6.00 Build 0)  -->
<svg version="1.1" id="e206c98e-a062-454f-98a1-36dd7d468c34"
	 xmlns="http://www.w3.org/2000/svg" xmlns:xlink="http://www.w3.org/1999/xlink" x="0px" y="0px" viewBox="0 0 897.1 606.1"
	 style="enable-background:new 0 0 897.1 606.1;" xml:space="preserve">
<style type="text/css">
	.st0{fill:#CCCCCC;}
	.st1{fill:#FFFFFF;}
	.st2{fill:#FFB8B8;}
	.st3{fill:#ED6E04;}
	.st4{fill:#2F2E41;}
	.st5{fill:#3F3D56;}
</style>
<rect x="273.8" y="35" class="st0" width="622" height="2.5"/>
<circle class="st0" cx="295" cy="18.7" r="7.5"/>
<circle class="st0" cx="316.5" cy="18.7" r="7.5"/>
<circle class="st0" cx="338" cy="18.7" r="7.5"/>
<path class="st0" d="M740.8,89.4h-312c-7.2,0-13,5.8-13,13c0,7.2,5.8,13,13,13h312c7.2,0,13-5.8,13-13
	C753.8,95.2,748,89.4,740.8,89.4z M740.8,113.4h-312c-6.1,0-11-4.9-11-11c0-6.1,4.9-11,11-11h312c6.1,0,11,4.9,11,11
	S746.9,113.4,740.8,113.4z"/>
<path class="st1" d="M836.3,193h-312c-7.2,0-13,5.8-13,13s5.8,13,13,13h312c7.2,0,13-5.8,13-13S843.5,193,836.3,193z"/>
<path class="st1" d="M836.3,241h-312c-7.2,0-13,5.8-13,13s5.8,13,13,13h312c7.2,0,13-5.8,13-13S843.5,241,836.3,241z"/>
<path class="st1" d="M836.3,289h-312c-7.2,0-13,5.8-13,13s5.8,13,13,13h312c7.2,0,13-5.8,13-13S843.5,289,836.3,289z"/>
<path class="st0" d="M473.9,171.5h-142c-6.3,0-11.5,5.1-11.5,11.5v45.2h2v-45.2c0-5.2,4.3-9.5,9.5-9.5h142c5.2,0,9.5,4.3,9.5,9.5
	v142c0,5.2-4.3,9.5-9.5,9.5h-39.4v2h39.4c6.3,0,11.5-5.1,11.5-11.5v-142C485.4,176.6,480.2,171.5,473.9,171.5z"/>
<path class="st2" d="M105.6,317.6c-0.5,0-21.9-1.5-22.5-1.5l1.9-19.2l12.2-0.4l23.3-43.2c-3.2-6.2,0.7-14.3,7.6-15.6
	c13.8-3.1,18.6,18.6,4.7,21.5L113.6,312C112.4,315.3,109.2,317.6,105.6,317.6z"/>
<path class="st3" d="M49.2,327.5c-20.4,0-22.2-30.7-1.7-32.9c54-3.3,47.2-16.8,51.3,23.2c0.3,2.5-1.5,4.7-4,5L51,327.4
	C50.4,327.4,49.8,327.5,49.2,327.5z"/>
<path class="st2" d="M44.5,230.1c28.1,16,5,58.1-23.6,43.1C-7.1,257.2,15.9,215.1,44.5,230.1z"/>
<polygon class="st2" points="70,592.8 82.3,592.8 88.1,545.5 70,545.5 "/>
<path class="st4" d="M67.4,604.2l38.5,0c-0.1-19.9-25.9-14.2-38.5-14.9L67.4,604.2z"/>
<polygon class="st2" points="17,592.8 29.3,592.8 35.1,545.5 17,545.5 "/>
<path class="st4" d="M14.4,604.2l38.5,0c-0.1-19.9-25.9-14.2-38.5-14.9L14.4,604.2z"/>
<path class="st4" d="M31,576.3c-3-0.8-19.1,1.6-21-1.6c-6.6-66.5-5.2-131.6,9.6-167.4l50.6-3.1c11.3,20.7,37.4,157.9,21.7,166.2
	l-20.2,0.7c-2.4,0.1-4.5-1.5-5-3.8l-16.9-96.1c-4.2-5.9-12.5,101.2-13.8,100.8C35.6,574.5,33.5,576.3,31,576.3z"/>
<path class="st3" d="M18,415.8c-25.6-26.8-9.3-98.5-10.1-97c0.1-1.8,5.9-28.8,20.8-33.3c11.9-3.9,25,7.8,26.7,19.7l17.8,105.2
	c0.2,1.2-0.2,2.3-1,3.2C73.1,416.3,19.2,415.2,18,415.8z"/>
<path class="st4" d="M26.3,248.9c2.2-1.4,3.4-3.9,4.7-6.1c6.9-3.9,14.8,5.6,22.1,2c20.6-19.8-0.6-25.6-19.5-26.6
	c-4.5-0.6-8.3,1-11.7,3.7C-16.1,219,2.1,269.4,26,276c4.2,1.8,7.4-1.9,3.7-5.3C24.5,265.3,18.1,254.5,26.3,248.9z"/>
<path class="st5" d="M419.5,226.1h-274c-9.4,0-17,7.6-17,17v346c0,9.4,7.6,17,17,17h274c9.4,0,17-7.6,17-17v-346
	C436.5,233.7,428.9,226.1,419.5,226.1z M434.5,589.1c0,8.3-6.7,15-15,15h-274c-8.3,0-15-6.7-15-15v-346c0-8.3,6.7-15,15-15h274
	c8.3,0,15,6.7,15,15V589.1z"/>
<path class="st2" d="M68.3,371.7c-9,1-13-20-16.4-25.3l18-7l5.9,10.7l49,1.2c0.3-0.4,0.6-0.8,1-1.1l0,0c9.7-10.2,25.6,5.1,15.9,15.2
	c-4.2,4.4-11.2,4.7-15.6,0.5c-0.3-0.3-0.6-0.6-0.9-1C123.8,365,69.5,371.8,68.3,371.7z"/>
<path class="st3" d="M55,361.7c-3,2.9-26.1-37.8-27.8-38.9c-11.7-18.1,15.8-36,27.7-18l24,36.9c1.4,2.1,0.8,4.9-1.3,6.2
	C76.5,348.4,55.8,362.8,55,361.7z"/>
<path class="st0" d="M365.5,465.6h-166c-17-0.1-17-25.9,0-26h166C382.5,439.7,382.5,465.5,365.5,465.6z"/>
<path class="st0" d="M365.5,513.6h-166c-17-0.1-17-25.9,0-26h166C382.5,487.7,382.5,513.5,365.5,513.6z"/>
<path class="st0" d="M365.5,561.6h-166c-17-0.1-17-25.9,0-26h166C382.5,535.7,382.5,561.5,365.5,561.6z"/>
<path class="st3" d="M427.5,258.1c-14.4,0-26-11.6-26-26s11.6-26,26-26s26,11.6,26,26C453.5,246.5,441.9,258.1,427.5,258.1z"/>
<path class="st1" d="M439.5,231.1h-11v-12.5c0-0.6-0.4-1-1-1s-1,0.4-1,1v12.5h-11c-0.6,0-1,0.4-1,1s0.4,1,1,1h11v12.5
	c0,0.6,0.4,1,1,1s1-0.4,1-1v-12.5h11c0.6,0,1-0.4,1-1S440.1,231.1,439.5,231.1z"/>
<path class="st3" d="M362.5,408.4h-160c-9.1,0-16.5-7.4-16.5-16.5v-89.6c0-9.1,7.4-16.5,16.5-16.5h160c9.1,0,16.5,7.4,16.5,16.5
	v89.6C379,401,371.6,408.4,362.5,408.4z"/>
</svg>
