<svg version="1" xmlns="http://www.w3.org/2000/svg" width="1066.667" height="1066.667" viewBox="0 0 800.000000 800.000000"><path d="M483.8.6c-.2.1-3.7.5-7.8.8-4.2.4-8.5.8-9.5 1-1.1.2-4.1.7-6.6 1-3.6.5-17.1 3.2-29.9 6.1-.8.2-6.9 2.2-13.5 4.4-6.6 2.3-12.4 4.3-13 4.5-9.9 3-35.5 16.4-50.3 26.4-3.5 2.3-6.7 4.2-7.2 4.2-.8 0-15.2-5.2-19.5-7-1.7-.7-8.6-3.1-10.5-3.5-.3-.1-1.2-.4-2-.8-.8-.3-2.8-.9-4.5-1.3-1.6-.4-3.2-.8-3.5-.9-7.5-1.8-11-2.7-12.1-2.8-.8-.2-1.9-.6-2.5-1-.7-.4-2.9-.9-5-1.1-2.2-.3-5-.8-6.4-1.1-3.4-.8-5.6-1.2-12-2-3-.3-6.2-.9-7-1.2-.8-.2-4.1-.7-7.3-.9-3.3-.2-7.1-.6-8.5-.9-8.5-1.6-46.3-2.4-53.7-1.2-10.1 1.8-12.4 2.1-18.1 2.1-7.3 0-11.6-2.4-21.7-12.2-3.6-3.4-9.1-7.6-12.3-9.3-4.9-2.5-6.8-3-11.9-2.8-3.3.1-8.1.9-10.8 1.8-4.1 1.3-5.2 2.3-8.5 7.5-5 8.1-7.4 12.6-6.7 12.6.3 0-.1 1-1 2.3-.8 1.3-1.2 2.6-.9 2.9.5.6-14.4 5.7-27.1 9.3-8.2 2.3-12.6 4.8-16.3 9-4.6 5.2-6.3 10-6.8 19-.3 6.8 0 8.6 1.9 12.5 3.6 7 8.6 9 23.3 9.5 6.6.3 12.8.6 13.9.9 1.1.2 2.9.5 4.1.5 4 .2 5.6 2.4 5.6 7.7-.1 7.3-1.1 26.2-1.7 31.4-.3 2.5-.8 6.3-1 8.5-.4 4.7-1.2 9.9-2.6 17.5-.6 3-1.1 6.2-1.1 7 0 .8-.4 3.5-.8 6-.5 2.5-1.2 7.2-1.5 10.5-.4 3.3-.9 6.9-1.1 8-.2 1-.6 3.7-.9 6-.3 2.2-1 7.1-1.5 11-.5 3.8-1.2 9-1.5 11.5-.4 2.5-.8 5.6-1 7-.6 3.5-2.2 25.9-3 42.5-.3 4.9-.7 12.8-1 17.5-1.3 23.5-2.3 44.9-3 65-.7 22.2-1.6 37.1-3 51.5-.2 1.6-.6 6.6-.9 11-.4 4.4-.8 8.7-1.1 9.5-.2.8-.7 4.4-1 8-.4 3.6-.8 7.2-1 8-.4 2.1-1.9 12.3-1.9 13.4-.1.4-5.5 2.8-12.1 5.2-11.4 4.2-29.4 12.2-30.5 13.5-.3.3-2.1 1.4-4 2.4-4.8 2.4-17 15-17 17.5 0 1.1-.4 2-.8 2-.5 0-.9 2-1.1 4.4-.6 12.2 8.9 20.9 32.4 30.1 18.7 7.2 26 11 31.8 16.4 7.1 6.7 7 6 7.4 41.6.2 17.6.3 33.3.2 35 0 4.3-.1 3.2.5 24.5.8 25.9 1.5 46.5 1.7 46.5.1 0 .3 3.1.4 7 .4 10.2 2.1 32.5 3 39 .2 1.6.7 5.2 1 8 3.3 27.2 6.5 35.6 17.4 45.8 10.3 9.4 22.4 13.7 37.5 13.2 11.1-.4 18.3-4.3 22.1-11.7 2.2-4.6 3.7-12.6 2.5-13.8-1.7-1.6-18.3-30.4-19.1-33.2-1.5-5-3.4-14.4-4.3-21.8-.3-1.9-.5-3.5-.6-3.5-.1 0-.3-1.4-.5-3-.9-8.6-1.6-14.3-2-16.5-.2-1.4-.7-5-.9-8-.3-3-1-8.9-1.6-13-1.3-8.7-2.1-15.2-2.5-19.5-.1-1.7-.5-5-.9-7.5-.6-5-1.2-10-2.2-21-.8-8.6-1.2-81.8-.4-82.9.3-.4 13.2-.7 28.7-.7 24.8 0 28.3.2 28.8 1.5.4 1.5 1.2 5.6 2.1 10.6.5 3.3 1.4 7.3 3 14.4.9 3.6 1.7 7.4 1.9 8.4 1 4.7 6.2 22.3 9.2 31.2 1.9 5.5 3.6 10.4 3.7 11 .2.5.9 2.3 1.6 4 .7 1.6 1.4 3.2 1.5 3.5.1.3.8 2.1 1.6 4 .9 1.9 2.4 5.6 3.4 8.3 1 2.6 2.2 4.7 2.6 4.7.5 0 .9.6.9 1.4 0 1.8 6 14 7.1 14.4.5.2.9 1 .9 1.8 0 .7 1.6 3.8 3.5 6.8s3.5 6 3.5 6.6c0 .5.5 1 1 1 .6 0 1 .5 1 1 0 1.2 11.1 17.3 13.1 19 .3.3 1 1.2 1.5 2.2 3.4 6.2 28.1 31.5 40.1 41.1 20.4 16.4 43.1 29.3 67.8 38.6 3.3 1.3 6.9 2.7 8 3.1 1.1.5 4.5 1.6 7.5 2.5 3 .8 6.9 2 8.5 2.5 4.9 1.5 14.7 3.9 18.5 4.5 1.9.3 4.2.8 5 1 .8.2 2.9.7 4.5.9 1.7.3 4.1.8 5.5 1 2.3.5 4.4.8 13.5 2.2 3 .4 7 .8 21.5 2.1 13.6 1.2 83.5.6 83.5-.7 0-.1 2.3-.3 5-.5 4.7-.4 7.9-.7 18.5-2 5.2-.6 7-.9 16.5-2.5 12.6-2 16.1-2.7 26.5-5.1 4.7-1.1 9.6-2.2 11-2.5 1.4-.2 3.9-.9 5.6-1.5 1.7-.5 4-1.1 5-1.3 1-.3 3-.9 4.4-1.4 1.4-.5 2.7-.9 3-.9.5 0 7.5-2.1 10-3 .8-.3 2-.7 2.5-.9 2.7-.7 17.1-6 17.5-6.4.3-.3 2.3-1.1 4.5-1.9 5.9-1.9 37.8-17.7 44.1-21.7 2.9-1.9 5.5-3.4 5.8-3.4.6 0 16.7-11.2 22.1-15.4 2.2-1.7 4.6-3.5 5.4-4.1 2.6-1.9 27.1-26.2 27.1-26.9 0-.4.7-1.4 1.6-2.3 3.1-3.1 11.7-16.8 16.5-26 6.8-13.4 11-26.5 14.4-45.3 1-5.9 1.4-32.2.5-37-1.5-8.2-2-10.1-4.5-16.5-7.6-20.2-24.1-37.3-48.5-50.2-11.9-6.4-31-13.1-41.7-14.6-1.7-.3-3.5-.7-4-1-.4-.3-3.9-.8-7.8-1.2-3.8-.4-8.3-.9-10-1.1-8.5-1-37.7-.4-48.5 1.1-1.9.2-6.4.7-10 1-3.6.3-7.8.7-9.5.9-1.6.2-5.5.7-8.5 1-3 .4-7.1.8-9 1.1-9.8 1.3-11.8 1.6-16 2-2.5.3-5.4.7-6.6.9-2.1.4-10.4 1.6-15.4 2.1-3.2.4-12 1.6-14.2 2-.9.2-3.8.6-6.5 1-2.6.4-5.8.8-7 1-1.2.2-5.7.9-10 1.5-4.3.7-8.5 1.3-9.3 1.5-.8.1-3.5.6-6 1s-5.4.9-6.5 1.1c-1.1.2-4.5.8-7.5 1.4-3 .6-6.6 1.3-8 1.6-1.4.3-3.6.7-5 1-1.4.3-5 1.2-8 2s-6.5 1.7-7.8 2c-7.3 1.5-18.5 7.8-23.5 13.2-4.2 4.4-5.5 9.3-5.2 19.1.5 11 1 15.1 3.4 23.1 2 7.2 5.8 15 7.2 15 .5 0 .9.6.9 1.2.1 3 9.9 10.1 17.5 12.6 8.9 3 14.2 3.3 19.5 1.2 12.2-4.8 25.7-10.2 27.5-11.1 7.5-3.4 42.9-16.2 48-17.4 1.1-.2 2.9-.6 4-.9 14.4-3.3 24.8-5.5 28.5-6 2.5-.3 5.6-.8 7-1.1 3.4-.7 8.6-1.4 15-2.1 3-.3 6.6-.7 8-.9 3.8-.4 15.6-1.4 24.5-2.1 4.3-.3 8.3-.7 8.6-1 .4-.2 1 0 1.4.5.3.6 1.5.7 2.8.2 2.7-.9 45.5-.7 51.2.3 13.7 2.4 23.1 7.8 26.7 15.2 2.3 4.9 1.6 14.6-1.8 22.9-3.6 9.1-16.6 32-22.7 40-.4.5-2.8 3.9-5.4 7.5-2.5 3.6-5 6.6-5.5 6.8-.4.2-.8.9-.8 1.5-.1 2.1-23.2 24.1-33 31.4-8.6 6.3-11.8 8.4-22.3 14.7-17.3 10.2-53.3 24.8-69.4 28.1-1 .2-3.8.8-6.3 1.4-2.5.7-5.6 1.4-7 1.7-1.4.3-3.6.7-5 1-1.4.3-3.8.7-5.5.9-1.6.2-4.1.7-5.5.9-1.3.3-5.2.8-8.6 1.2l-6.1.5-.8-3.3c-.4-1.8-.8-3.5-.9-3.8-2-8.1-12.2-28.5-19.6-39.5-11-16.3-27.4-34.4-44.9-49.5-3.5-3-7.6-6.6-9.1-8-4.7-4.3-7.6-6.7-18.2-15.1-5.7-4.4-11.2-8.9-12.3-9.8-1.1-.9-5.8-4.5-10.5-8.1-4.7-3.5-8.6-6.8-8.8-7.2-.2-.4-1-.8-1.8-.8s-1.4-.4-1.4-.8-1.3-1.6-3-2.5c-1.6-1-3.5-2.3-4.2-3-.7-.7-7.6-5.9-15.3-11.5-14.2-10.3-38.6-28.8-46.5-35.2-22.9-18.6-37-31.3-37-33.4 0-.3 7.6-3.7 9-4.1 5.2-1.1 9.2-3.2 15.5-8 1-.8 2.5-1.5 3.2-1.5.7 0 1.3-.5 1.3-1 0-.6.5-1 1-1 1.1 0 38.5-24.5 40.8-26.7.8-.7 2.2-1.8 3.3-2.3 1.9-1.1 13.1-9.2 17.9-13 31.9-25.4 47.8-41.4 61.4-62.1 3.1-4.6 5.9-8.9 6.4-9.4.4-.6 3.3-6 6.3-12 6.5-12.8 12.8-28.6 15.4-38.5.2-.8 1.1-4 1.9-7 .8-3 1.7-6.9 2-8.5.3-1.7.8-4.1 1.2-5.5.3-1.4.7-3.2.8-4 .5-2.8 1.8-10.5 2.3-13.5.3-1.7.6-5 .8-7.5.2-2.5.6-7.7 1-11.5.7-7.5.8-39.4.1-46-1.4-13.6-1.7-16.5-2.6-21-.5-2.8-1.2-6.1-1.4-7.5-1.3-6.8-1.7-8.6-2.2-10.2-.3-.9-.7-2.6-.9-3.7-1.1-5.8-8.3-24.9-13.2-34.8-4.5-9.4-16.1-28.6-18.2-30.3-.3-.3-2.2-2.5-4.1-5-6.1-8-17.4-19.7-26.2-27.3-2.6-2.2-4.8-4.4-4.8-4.8 0-1 15.1-9.2 22-11.9 3-1.2 6.6-2.7 8-3.3 1.4-.5 3-1.1 3.5-1.3.6-.1 4.2-1.2 8-2.2 12.5-3.6 23.6-5.5 32.2-5.6 3.5-.1 6.3-.3 6.3-.6 0-.6 11.6-.3 21 .4 6.4.6 16.4 2.5 22.8 4.5 1.8.5 3.6 1.1 4 1.2 4.3 1.1 14.1 5.3 20.1 8.6 28.8 15.8 51.6 41.7 72.2 81.8 8.5 16.6 20.5 45.1 23.3 55 .1.5 1.1 3.7 2.1 7s1.9 6.5 2 7c.2.6 1.2 4.4 2.3 8.5 3.7 13.8 6.4 28.6 8.8 47.5.3 2.7.8 5.9 1 7 .3 1.7 1.7 28.5 1.6 31-.3 7-.8 9.9-2.4 15-2.3 7.3-8.3 19.9-11.5 24.1-1.2 1.7-2.3 3.4-2.3 3.8 0 .3-1.5 2.8-3.3 5.4-5.3 7.7-11.8 18.3-15.4 25.1-2.8 5.4-3.3 7-2.8 10.9 1.7 14.3 14.9 22.2 37 22.2 6.1 0 9-.2 16.5-1.5 9.1-1.5 24.9-12.7 30.1-21.3 1.3-2 2.6-3.9 2.9-4.2 3-2.6 13-28.2 14.5-37 .3-1.9.8-4.2 1-5 .5-1.6 1.1-5.1 2-11.5.4-2.2.8-5.2 1.1-6.6.6-4.2 1.6-14 1.9-20.9.2-3.6.4-6.5.5-6.5.6 0 .5-33.5-.1-35.2-.5-1.3-.4-2.5.2-2.8.5-.4.6-1.1.3-1.7-.4-.6-.8-2.7-.9-4.7-.6-8.1-1.9-16.2-4.1-26.6-.2-1.1-.6-2.9-.8-4-.2-1.1-.9-3.8-1.5-6-.5-2.2-1.5-5.8-2-8.1-1.5-5.8-8.9-26.9-11.6-32.9-1.2-2.8-2.8-6.7-3.6-8.8-.7-2-1.7-3.7-2.1-3.7-.4 0-.7-.3-.6-.8.7-2.7-28-53.6-34.9-61.7-.5-.6-2.4-3.3-4.3-6-1.9-2.8-3.7-5.2-4.2-5.3-.4-.2-.8-.8-.8-1.3s-.7-1.7-1.5-2.6c-.8-1-4.2-5.4-7.7-9.8-9.2-11.6-24.3-27.6-35.1-37.3-6.3-5.5-21.9-17.5-27.7-21.2-3-1.9-5.7-3.7-6-4-1.7-1.8-24.9-13.3-33.5-16.7-4.4-1.7-8.9-3.5-10-3.9-1.1-.4-2.4-.9-3-1-.5-.1-1.3-.3-1.7-.4-.5-.1-1.1-.3-1.5-.4-.5-.1-2.4-.7-4.4-1.4-2-.7-4.5-1.4-5.5-1.6-1-.2-4.8-1.2-8.3-2.1-3.5-.9-7.8-1.9-9.5-2.2-3.1-.6-33.4-1.2-33.8-.7zM250 79.4c1.9.2 6.3.7 9.8 1 6.2.6 10.2 1.1 15.2 2.1 1.4.3 3.6.7 5 1 8.8 1.6 21 4.8 21 5.4 0 .4-1.4 2.3-3.1 4.2-1.7 1.9-4.5 5.1-6.2 7.3-1.8 2.1-3.9 4.5-4.7 5.4-.8.8-4 4.9-7.2 9.1-3.2 4.2-6.1 8-6.6 8.6-6.6 8.5-20.6 30.7-29.4 46.5-9.2 16.6-22.8 44.7-23.5 48.4-.2 1.1-.9 2.6-1.5 3.3-.6.8-1.9 3.5-2.8 6.1-3.4 9.4-10.3 27.8-11.5 30.7-.7 1.6-2.1 5.7-3.1 9-2.1 7-1.7 5.9-3.3 11.5-.6 2.5-1.5 5.2-1.8 6-.3.8-.7 1.9-.8 2.5-.2.5-1.7 6.6-3.5 13.5s-3.4 13.6-3.7 15c-.2 1.4-.9 4.5-1.4 7-1.6 6.6-1.8 7.7-3.4 17-.8 4.7-1.7 9.4-1.9 10.5-.2 1.1-.7 4.5-1.1 7.5-.4 3-.9 6.2-1 7-.2.8-.6 4.2-.9 7.5-.4 3.3-.9 7.8-1.1 10-.7 6.4-1.6 17.4-2.1 25-.5 8.7-.6 61-.1 64.7.3 2.1 0 2.8-1.2 2.8-2.6 0-48.3-18.7-49.2-20.2-.4-.6-.6-1.5-.4-1.9.3-.3.7-8.7 1-18.5.7-23 1.2-34 2-49.4.4-6.9.8-15.4 1-19 .4-6 1-15.6 2-28.5 1.2-15.9 1.6-20.3 1.9-23 .3-1.7.7-6.4 1-10.5.4-4.2.8-8.7 1.1-10 .2-1.3.7-4.8 1-7.8.3-3 .7-6.7.9-8.1.3-1.4.7-4.9 1.1-7.6.3-2.8.8-5.8 1.1-6.7.3-.9.6-3.2.8-5 .2-1.8.7-4.9 1-6.8 1.3-6.6 2.9-28.3 3-40.2.1-3.8.3-6.8.6-6.8s.5-4.4.6-9.8c0-12.3 1.2-34.9 1.9-38.2.3-1.4.7-4.7 1-7.4 1.7-15.6 9.5-37.9 18-51.2 1.9-3 3.1-5.4 2.7-5.4-.4 0-.2-.4.4-.8.6-.4 2.1-2.6 3.4-4.9 2.6-4.6 3-4.9 10.5-5.9 2.8-.3 5.3-.8 5.6-1 .4-.2 4.2-.6 8.5-1 4.3-.3 8-.6 8.1-.8.5-.4 41.3.3 45.3.8zM382.4 131c3.3 2.7 17.5 17.4 19.2 20 .9 1.4 2.2 2.9 2.8 3.5 1.9 1.7 10.4 15.4 13.5 21.9 4.1 8.6 7.2 15.7 7.7 17.5.2.9 1.3 5 2.4 9.1 3.6 12.8 4.4 17.4 5.5 32.5 1.2 15.5.3 40.8-1.8 51-.4 1.6-.9 4.3-1.2 6-.3 1.6-.8 3.9-1 5-.2 1.1-.7 3.3-1 5-.4 1.6-.8 3.7-1 4.5-.2.8-.4 1.6-.5 1.7-.2.2-.3.6-.4 1-7 27-22.8 57.7-41.1 80.3-10.1 12.4-10.2 12.4-20 22.5-8.8 9.1-14.7 14.5-23.5 21.5-2.4 1.9-4.8 3.9-5.5 4.5-.6.5-1.8 1.4-2.7 2-.8.5-4.2 2.8-7.4 5.1-7.2 5-19.3 12.4-20.4 12.4-.4 0-1.3.7-2 1.5-.6.8-1.5 1.4-1.8 1.3-.4-.1-5.4 2.1-11.2 4.9-5.8 2.7-13.2 6-16.5 7.2-3.3 1.3-7 2.7-8.3 3.2-1.3.5-2.7.9-3.2.9-.4 0-.9-4.8-.9-10.7-.1-5.9-.3-10.9-.6-11.1-.2-.3 0-1.3.5-2.3.7-1.2.7-2 0-2.4-.6-.4-.8-.9-.6-1.3.2-.4.7-9 1-19.2.4-10.2.9-20.3 1.1-22.5 1.2-11.2 1.5-14.5 2-20.5.3-3.6.8-7.6 1-9 .3-1.4.7-4.3 1-6.5.8-6.7 1.4-10.8 2-15 .4-2.2.9-5.4 1.1-7 .2-1.7.6-4.1.9-5.5.3-1.4.7-4.1 1-6 .9-5.7 1.4-8.2 2.5-14 .6-3 1.3-6.4 1.4-7.5.2-1.1.8-4.5 1.5-7.5 1.6-8 2.1-9.9 3.1-15.4.6-2.7 1.5-6.8 2.2-9 .6-2.3 1.2-4.6 1.4-5.1.2-1 3.2-11.9 3.8-14 .2-.6.4-1.3.5-1.7.1-.4.9-2.7 1.7-5 .9-2.4 1.7-4.8 1.8-5.3.1-.6.4-1.5.7-2 .4-.6 1.4-3.5 2.4-6.5s2.1-5.9 2.6-6.5c.5-.5.9-1.4.9-2.1 0-.6.9-3.1 1.9-5.5 1.1-2.4 2-4.7 2.1-5.1.1-1.1 17.2-35.2 17.9-35.8.3-.3 1.5-2.1 2.5-4 2.3-4.2 20.1-31.3 22.4-34.2.9-1.1 2.3-2.6 3-3.3.6-.8 1.2-1.8 1.2-2.3 0-.6.3-1.2.8-1.4.4-.2 2.9-3 5.7-6.3 2.7-3.3 7.2-8.4 9.9-11.2l4.9-5.3 4.6 3.8c2.5 2 5.4 4.4 6.5 5.2zm-92.9 462.9c14.3 9.9 36 25.5 37.3 26.8.7.7 1.6 1.3 2 1.3.4 0 2.1 1.3 3.8 2.8 1.8 1.5 4.2 3.4 5.4 4.2 1.3.8 3.7 2.6 5.4 4 1.7 1.4 3.6 2.8 4.1 3.2.6.5 2.9 2.3 5.2 4 2.2 1.8 5.6 4.4 7.4 5.8 1.8 1.4 3.7 2.9 4.3 3.5.6.5 2.7 2.2 4.8 3.7 2 1.5 4.2 3.3 5 4 .7.7 2.9 2.5 5 4 2 1.5 4.2 3.3 5 4 .7.7 3.8 3.3 6.8 5.8s6 4.9 6.6 5.5c.6.5 3.3 2.8 6 5 2.6 2.2 5.8 4.9 7 6 1.2 1.1 5.2 4.7 8.9 8 23.6 21.2 50.5 48.7 50.5 51.6 0 .5-.4.8-.8.5-.9-.5-4.3-1.2-10.2-2.2-1.9-.3-4.4-.8-5.5-1.1-2.2-.7-3.7-1.1-7.5-1.8-2.8-.5-6.2-1.4-17-4.4-4.1-1.2-8.2-2.3-9-2.6-4.7-1.2-20.6-6.9-21.4-7.6-.6-.5-1.6-.9-2.4-.9-1.9 0-28.4-13.2-36.2-18.1-6.9-4.3-19.5-13.5-22.3-16.4-.9-.9-1.7-1.4-1.7-1.1 0 .6-17.5-16.9-20.7-20.7-1.3-1.5-2.3-3.2-2.3-3.7 0-.6-.4-1-.9-1-1.7 0-15.1-21.2-20.6-32.5-4.6-9.4-10.8-24.5-12.1-29.5-.2-.8-1.5-5.6-2.9-10.5-1.3-5-2.5-9.1-2.5-9.3 0-.6 7.1 3.9 15.5 9.7z"/></svg>